# xmcd
#
# Track frame offsets:
#	150
#	19746
#	36597
#	51075
#	66754
#	80483
#	95976
#	111966
#	127300
#	144383
#	162334
#	180419
#	197988
#	214774
#
# Disc length: 3120 seconds
#
# Revision: 1
# Processed by: cddbd v1.5.1PL0 Copyright (c) Steve Scherf et al.
# Submitted via: audiograbber 1.83.01
#
DISCID=d50c2e0e
DTITLE=Various Artist - SD099
DYEAR=1900
DGENRE=Karaoke Country
TTITLE0=Brad Paisley - I Wish You'd Stay
TTITLE1=Faith Hill - Cry
TTITLE2=Toby Keith - Who's Your Daddy
TTITLE3=Brooks and Dunn - Every River
TTITLE4=Trick Pony - On A Mission
TTITLE5=Steve Holy - I'm Not Breakin'
TTITLE6=George Strait - Stars On The Water
TTITLE7=Terri Clark - I Just Wanna Be Mad
TTITLE8=Jennifer Hanson - Beautiful Goodbye
TTITLE9=Radney Foster - Angel Everyday
TTITLE10=Josh Turner - She'll Go ON You
TTITLE11=Michael Peterson - Modern Man
TTITLE12=Aaron Lines - You Can't Hide Beautiful
TTITLE13=Ricky Skaggs - Halfway Home Cafe'
EXTD=
EXTT0=
EXTT1=
EXTT2=
EXTT3=
EXTT4=
EXTT5=
EXTT6=
EXTT7=
EXTT8=
EXTT9=
EXTT10=
EXTT11=
EXTT12=
EXTT13=
PLAYORDER=
